<svg xmlns="http://www.w3.org/2000/svg" xmlns:xlink="http://www.w3.org/1999/xlink"><defs><symbol viewBox="0 0 35 30" id="ic-add-square"><style>#ic-add-square .st0{fill:#292d32}#ic-add-square .st1{fill:#1f242c}</style><path class="st0" d="M26.4 29.7c-.5 0-.9-.3-1.1-.7L13.8 4.5 2.4 29c-.3.6-1 .9-1.7.6-.6-.3-.9-1-.6-1.7L12.7 1c.2-.4.6-.7 1.1-.7.5 0 .9.3 1.1.7l12.6 27c.3.6 0 1.4-.6 1.7h-.5z" /><path class="st0" d="M21.7 20.4H5.9c-.7 0-1.3-.6-1.3-1.3s.6-1.3 1.3-1.3h15.8c.7 0 1.3.6 1.3 1.3s-.6 1.3-1.3 1.3z" /><path class="st1" d="M33.7 10.7H23.1c-.7 0-1.3-.6-1.3-1.3s.6-1.3 1.3-1.3h10.7c.7 0 1.3.6 1.3 1.3s-.7 1.3-1.4 1.3z" /><path class="st1" d="M28.4 16.1c-.7 0-1.3-.6-1.3-1.3V4.2c0-.7.6-1.3 1.3-1.3s1.3.6 1.3 1.3v10.7c0 .6-.6 1.2-1.3 1.2z" /></symbol><symbol viewBox="0 0 38 38" id="ic-archive"><style>#ic-archive .st0{fill:#1e1e1e}</style><path class="st0" d="M26.1 36.1H11.9c-5.3 0-6-2.9-6-6V16.2c0-.7.6-1.3 1.3-1.3s1.3.6 1.3 1.3v13.9c0 2.7.5 3.5 3.5 3.5h14.3c3 0 3.5-.8 3.5-3.5V16.2c0-.7.6-1.3 1.3-1.3s1.3.6 1.3 1.3v13.9c-.3 3.1-1 6-6.3 6z" /><path class="st0" d="M30.1 17.1H7.9c-3.9 0-6-2.1-6-6V7.9c0-3.9 2.1-6 6-6h22.2c3.9 0 6 2.1 6 6v3.2c0 3.9-2.1 6-6 6zM7.9 4.4c-2.5 0-3.5 1-3.5 3.5v3.2c0 2.5 1 3.5 3.5 3.5h22.2c2.5 0 3.5-1 3.5-3.5V7.9c0-2.5-1-3.5-3.5-3.5H7.9zM21.9 23.4h-5.8c-.7 0-1.3-.6-1.3-1.3s.6-1.3 1.3-1.3h5.8c.7 0 1.3.6 1.3 1.3s-.6 1.3-1.3 1.3z" /></symbol><symbol viewBox="0 0 14 23" id="ic-arr-left"><path d="M12.3 23c-.3 0-.6-.1-.8-.3l-9.2-8.4c-.8-.7-1.2-1.7-1.2-2.7 0-1 .4-2 1.2-2.7L11.5.5c.5-.5 1.3-.4 1.8.1s.4 1.3-.1 1.8L4 10.8c-.3.2-.4.6-.4.9 0 .3.1.6.4.9l9.2 8.4c.5.5.5 1.3.1 1.8-.4 0-.7.2-1 .2z" /></symbol><symbol viewBox="0 0 14 23" id="ic-arr-right"><path d="M2.4.2c.3 0 .6.1.8.3l9.2 8.4c.8.7 1.2 1.7 1.2 2.7s-.4 2-1.2 2.7l-9.2 8.4c-.5.5-1.3.4-1.8-.1s-.4-1.3.1-1.8l9.2-8.4c.3-.2.4-.6.4-.9 0-.3-.1-.6-.4-.9L1.5 2.2C1 1.7 1 .9 1.4.4c.4 0 .7-.2 1-.2z" /></symbol><symbol viewBox="0 0 40 40" id="ic-arrow-left"><path d="M40 20C40 9 31 0 20 0S0 9 0 20s9 20 20 20 20-9 20-20zm-22.1 7.1l-6-6c-.3-.3-.4-.7-.4-1.1s.1-.8.4-1.1l6-6c.6-.6 1.5-.6 2.1 0s.6 1.5 0 2.1l-3.4 3.4H27c.8 0 1.5.7 1.5 1.5s-.7 1.5-1.5 1.5H16.6l3.4 3.4c.6.6.6 1.5 0 2.1s-1.5.7-2.1.2z" /></symbol><symbol viewBox="0 0 40 40" id="ic-arrow-right"><path d="M0 20c0 11 9 20 20 20s20-9 20-20S31 0 20 0 0 9 0 20zm22.1-7.1l6 6c.3.3.4.7.4 1.1s-.1.8-.4 1.1l-6 6c-.6.6-1.5.6-2.1 0s-.6-1.5 0-2.1l3.4-3.4H13c-.8 0-1.5-.7-1.5-1.5s.7-1.5 1.5-1.5h10.4L20 15.2c-.6-.6-.6-1.5 0-2.1s1.5-.7 2.1-.2z" /></symbol><symbol viewBox="0 0 16 16" id="ic-bell"><style>#ic-bell .st0{fill:#9eabc1}</style><path class="st0" d="M12.6 15.4H3.3C.5 15.4.5 13.7.5 12.6V12c0-.8.6-1.4 1.4-1.4h12c.8 0 1.4.6 1.4 1.4v.7c.1 1.1.1 2.7-2.7 2.7zM2.1 12.1v.6c0 1.1 0 1.3 1.3 1.3h9.3c1.3 0 1.3-.2 1.3-1.3v-.6H2.1z" /><path class="st0" d="M13.8 12.1H2.2c-.4 0-.8-.3-.8-.8V8.7c0-2.9 2-5.4 4.8-5.9.4-.1.8-.1 1.3-.1h1c.4 0 .9 0 1.3.1 2.8.6 4.8 3.1 4.8 5.9v2.7c0 .3-.4.7-.8.7zM2.9 10.6H13V8.7c0-2.1-1.5-4-3.6-4.5-.3-.1-.6-.1-1-.1h-1c-.3 0-.7 0-1 .1-1.9.4-3.5 2.3-3.5 4.5v1.9z" /><path class="st0" d="M9.6 4.2h-.2c-.3-.1-.6-.1-1-.1h-1c-.3 0-.7 0-1 .1-.2.1-.6-.2-.7-.5-.1-.3-.1-.5-.1-.7C5.6 1.7 6.7.6 8 .6c1.3 0 2.4 1.1 2.4 2.4 0 .2 0 .4-.1.7-.1.3-.4.5-.7.5zM7.5 2.6h1.3c-.1-.3-.4-.5-.8-.5s-.7.2-.8.5h.3zM10 8.1H6c-.4 0-.8-.3-.8-.8s.4-.7.8-.7h4c.4 0 .8.3.8.8s-.4.7-.8.7z" /></symbol><symbol viewBox="0 0 29 21" id="ic-check"><path d="M27.675.658a2.247 2.247 0 00-3.178 0L10.194 14.962 3.837 8.605a2.247 2.247 0 10-3.179 3.178l7.946 7.946a2.24 2.24 0 001.59.659c.574 0 1.15-.22 1.589-.659L27.675 3.837c.877-.878.877-2.301 0-3.179z" /></symbol><symbol viewBox="0 0 18 18" id="ic-circle"><path d="M9 0C4 0 0 4 0 9s4 9 9 9 9-4 9-9-4-9-9-9zm0 15c-3.3 0-6-2.7-6-6s2.7-6 6-6 6 2.7 6 6-2.7 6-6 6z" /></symbol><symbol viewBox="0 0 18 18" id="ic-circle-half-left"><path d="M9 0C4 0 0 4 0 9s4 9 9 9 9-4 9-9-4-9-9-9zm-.3 15C5.5 14.9 3 12.2 3 9s2.5-5.9 5.7-6v12z" /></symbol><symbol viewBox="0 0 18 18" id="ic-circle-half-right"><path d="M9 0C4 0 0 4 0 9s4 9 9 9 9-4 9-9-4-9-9-9zm1 15V3c3.2.1 5.7 2.8 5.7 6s-2.5 5.9-5.7 6z" /></symbol><symbol viewBox="0 0 18 18" id="ic-circle-quarter-1_4"><path d="M9 18c5 0 9-4 9-9s-4-9-9-9-9 4-9 9 4 9 9 9zM8.5 2.1s3.1.1 5.1 2.3c2.2 2.2 2.1 5.1 2.1 5.1H8.5V2.1z" /></symbol><symbol viewBox="0 0 18 18" id="ic-circle-quarter-2_4"><path d="M0 9c0 5 4 9 9 9s9-4 9-9-4-9-9-9-9 4-9 9zm8.5-.5h7.2s.1 2.9-2.1 5.1c-2 2.2-5.1 2.3-5.1 2.3V8.5z" /></symbol><symbol viewBox="0 0 18 18" id="ic-circle-quarter-3_4"><path d="M9 0C4 0 0 4 0 9s4 9 9 9 9-4 9-9-4-9-9-9zm.5 15.9s-3.1-.1-5.1-2.3c-2.2-2.2-2.1-5.1-2.1-5.1h7.2v7.4z" /></symbol><symbol viewBox="0 0 18 18" id="ic-circle-quarter-4_4"><path d="M18 9c0-5-4-9-9-9S0 4 0 9s4 9 9 9 9-4 9-9zm-8.5.5H2.3s-.1-2.9 2.1-5.1c2-2.2 5.1-2.3 5.1-2.3v7.4z" /></symbol><symbol viewBox="0 0 25 20" id="ic-clear"><path fill-rule="evenodd" clip-rule="evenodd" d="M10.352.078c-1.31 0-2.574.498-3.56 1.401L2.158 5.727c-2.462 2.257-2.462 6.269 0 8.525L6.792 18.5a5.266 5.266 0 003.56 1.402h8.782c2.986 0 5.407-2.536 5.407-5.664V5.742c0-3.128-2.42-5.664-5.407-5.664h-8.782zm1.505 5.538a.894.894 0 00-1.285 0 .944.944 0 000 1.314l2.992 3.06-2.992 3.06a.944.944 0 000 1.314.894.894 0 001.285 0l2.992-3.06 2.992 3.06a.894.894 0 001.285 0 .944.944 0 000-1.314l-2.992-3.06 2.992-3.06a.944.944 0 000-1.314.894.894 0 00-1.285 0l-2.992 3.06-2.992-3.06z" /></symbol><symbol viewBox="0 0 19 19" id="ic-clock"><style>#ic-clock .st0{fill:#1f242c}</style><path class="st0" d="M9.5 18.4c-4.9 0-8.9-4-8.9-8.9S4.6.6 9.5.6s8.9 4 8.9 8.9-4 8.9-8.9 8.9zm0-15.8c-3.8 0-6.9 3.1-6.9 6.9 0 3.8 3.1 6.9 6.9 6.9 3.8 0 6.9-3.1 6.9-6.9 0-3.8-3.1-6.9-6.9-6.9z" /><path class="st0" d="M12.4 13c-.2 0-.4 0-.5-.1l-2.5-1.5C8.7 11 8.2 10 8.2 9.2V5.9c0-.6.4-1 1-1s1 .4 1 1v3.2c0 .1.2.4.3.5l2.5 1.5c.5.3.6.9.3 1.4-.2.3-.5.5-.9.5z" /></symbol><symbol viewBox="0 0 20 20" id="ic-close"><style>#ic-close .st0{fill:#292d32}</style><path class="st0" d="M18 19.3c-.3 0-.6-.1-.9-.4l-16-16c-.5-.5-.5-1.3 0-1.8s1.3-.5 1.8 0l16 16c.5.5.5 1.3 0 1.8-.3.2-.6.4-.9.4z" /><path class="st0" d="M2 19.3c-.3 0-.6-.1-.9-.4-.5-.5-.5-1.3 0-1.8l16-16c.5-.5 1.3-.5 1.8 0s.5 1.3 0 1.8l-16 16c-.3.2-.6.4-.9.4z" /></symbol><symbol viewBox="0 0 24 24" id="ic-crown"><path d="M17 22H7c-.41 0-.75-.34-.75-.75s.34-.75.75-.75h10c.41 0 .75.34.75.75s-.34.75-.75.75zM20.35 5.52l-4 2.86c-.53.38-1.29.15-1.52-.46l-1.89-5.04c-.32-.87-1.55-.87-1.87 0l-1.9 5.03c-.23.62-.98.85-1.51.46l-4-2.86c-.8-.56-1.86.23-1.53 1.16l4.16 11.65c.14.4.52.66.94.66h9.53c.42 0 .8-.27.94-.66l4.16-11.65c.34-.93-.72-1.72-1.51-1.15zm-5.85 9.23h-5c-.41 0-.75-.34-.75-.75s.34-.75.75-.75h5c.41 0 .75.34.75.75s-.34.75-.75.75z" /></symbol><symbol viewBox="0 0 22 22" id="ic-download"><style>#ic-download .st0{fill:#292d32}</style><path class="st0" d="M14 21.8H8C2.6 21.8.2 19.5.2 14V8C.2 2.6 2.5.2 8 .2h6c5.4 0 7.8 2.3 7.8 7.8v6c0 5.4-2.4 7.8-7.8 7.8zm-6-20C3.4 1.8 1.8 3.4 1.8 8v6c0 4.6 1.6 6.3 6.3 6.3h6c4.6 0 6.3-1.6 6.3-6.3V8c0-4.6-1.6-6.3-6.3-6.3H8z" /><path class="st0" d="M11 14.3c-.2 0-.4-.1-.5-.2l-3-3c-.3-.3-.3-.8 0-1.1s.8-.3 1.1 0l2.5 2.5 2.5-2.5c.3-.3.8-.3 1.1 0s.3.8 0 1.1l-3 3c-.3.1-.5.2-.7.2z" /><path class="st0" d="M11 14.3c-.4 0-.8-.3-.8-.8v-8c0-.4.3-.8.8-.8s.8.3.8.8v8c0 .4-.4.8-.8.8zM11 17.2c-2.1 0-4.2-.3-6.2-1-.4-.1-.6-.6-.5-.9.1-.4.6-.6.9-.5C9 16 13 16 16.8 14.8c.4-.1.8.1.9.5.1.4-.1.8-.5.9-2 .7-4.1 1-6.2 1z" /></symbol><symbol viewBox="0 0 59 58" id="ic-face"><path d="M38.5 57.6c-1.1 0-2-.9-2-2s.9-2 2-2c13.6 0 15.8-2.2 15.8-15.8 0-1.1.9-2 2-2s2 .9 2 2c0 15.7-4.1 19.8-19.8 19.8zm-18 0C4.8 57.6.7 53.5.7 37.8c0-1.1.9-2 2-2s2 .9 2 2c0 13.6 2.2 15.8 15.8 15.8 1.1 0 2 .9 2 2s-.9 2-2 2zm9-14.9c-5.4 0-10.3-2.5-13.5-6.8-.7-.9-.5-2.1.4-2.8.9-.7 2.1-.5 2.8.4 2.5 3.3 6.2 5.2 10.3 5.2s7.8-1.9 10.3-5.2c.7-.9 1.9-1.1 2.8-.4.9.7 1.1 1.9.4 2.8-3.2 4.3-8.1 6.8-13.5 6.8zm8.9-17.9c-1.1 0-2-.9-2-2s.9-2 2-2 2 .9 2 2-.9 2-2 2zm-17.8 0c-1.1 0-2-.9-2-2s.9-2 2-2 2 .9 2 2-.9 2-2 2zm35.7-3c-1.1 0-2-.9-2-2C54.3 6.2 52.1 4 38.5 4c-1.1 0-2-.9-2-2s.9-2 2-2c15.7 0 19.8 4.1 19.8 19.8 0 1.1-.9 2-2 2zm-53.6 0c-1.1 0-2-.9-2-2C.7 4.1 4.8 0 20.5 0c1.1 0 2 .9 2 2s-.9 2-2 2C6.9 4 4.7 6.2 4.7 19.8c0 1.1-.9 2-2 2z" /></symbol><symbol viewBox="0 0 235 235" id="ic-frame"><style>#ic-frame .st0{fill:#323232}</style><path class="st0" d="M78.5 234.8c-34.6 0-52.3-4.2-63.2-15.1-10.8-10.9-15-28.6-15-63.2 0-.7.6-1.3 1.3-1.3s1.3.6 1.3 1.3c0 33.9 4 51.1 14.4 61.4 10.3 10.3 27.6 14.4 61.4 14.4.7 0 1.3.6 1.3 1.3s-.8 1.2-1.5 1.2zM156.5 234.8c-.7 0-1.3-.6-1.3-1.3s.6-1.3 1.3-1.3c33.9 0 51.1-4 61.4-14.4 10.3-10.3 14.4-27.6 14.4-61.4 0-.7.6-1.3 1.3-1.3s1.3.6 1.3 1.3c0 34.6-4.2 52.3-15.1 63.2-11 10.9-28.7 15.2-63.3 15.2zM233.5 79.8c-.7 0-1.3-.6-1.3-1.3 0-33.9-4-51.1-14.4-61.4-10.2-10.3-27.5-14.3-61.3-14.3-.7 0-1.3-.6-1.3-1.3s.6-1.3 1.3-1.3c34.6 0 52.3 4.2 63.2 15.1 10.9 10.9 15.1 28.6 15.1 63.2 0 .7-.6 1.3-1.3 1.3zM1.5 79.8c-.7 0-1.3-.6-1.3-1.3 0-34.6 4.2-52.3 15.1-63.2C26.2 4.5 43.9.3 78.5.3c.7 0 1.3.6 1.3 1.3s-.6 1.3-1.3 1.3c-33.9 0-51.1 4-61.4 14.4C6.8 27.4 2.8 44.7 2.8 78.5c0 .7-.6 1.3-1.3 1.3z" /></symbol><symbol viewBox="0 0 34 34" id="ic-language"><style>#ic-language .st0{fill:#1e1e1e}</style><path class="st0" d="M24.9 13.5H9.1c-.7 0-1.2-.6-1.2-1.2S8.5 11 9.1 11h15.7c.7 0 1.2.6 1.2 1.2s-.5 1.3-1.1 1.3z" /><path class="st0" d="M17 13.5c-.7 0-1.2-.6-1.2-1.2V9.6c0-.7.6-1.2 1.2-1.2s1.2.6 1.2 1.2v2.6c0 .7-.5 1.3-1.2 1.3zM9.1 25.7c-.7 0-1.2-.6-1.2-1.2s.6-1.2 1.2-1.2c5.8 0 10.6-4.9 10.6-11 0-.7.6-1.2 1.2-1.2s1.2.6 1.2 1.2c.1 7.3-5.8 13.4-13 13.4z" /><path class="st0" d="M24.9 25.7c-3.1 0-6-1.6-8.2-4.4-.4-.5-.3-1.3.2-1.7.5-.4 1.3-.3 1.7.2 1.7 2.2 3.9 3.4 6.2 3.4.7 0 1.2.6 1.2 1.2.1.7-.4 1.3-1.1 1.3z" /><path class="st0" d="M21.7 34h-9.5C3.7 34 0 30.3 0 21.7v-9.5C0 3.7 3.7 0 12.3 0h9.5C30.3 0 34 3.7 34 12.3v9.5C34 30.3 30.3 34 21.7 34zM12.3 2.5C5 2.5 2.5 5 2.5 12.3v9.5c0 7.2 2.6 9.8 9.8 9.8h9.5c7.2 0 9.8-2.6 9.8-9.8v-9.5c0-7.2-2.6-9.8-9.8-9.8h-9.5z" /></symbol><symbol viewBox="0 0 22 22" id="ic-login"><style>#ic-login .st0{fill:#9eabc1}</style><path class="st0" d="M10.7 14.4c-.3 0-.5-.1-.7-.3-.4-.4-.4-1 0-1.4l1.6-1.6L10 9.4c-.4-.4-.4-1 0-1.4.4-.4 1-.4 1.4 0l2.3 2.3c.2.2.3.4.3.7 0 .3-.1.5-.3.7L11.4 14c-.2.3-.4.4-.7.4z" /><path class="st0" d="M13 12.1H3.7c-.6 0-1-.4-1-1s.4-1 1-1H13c.6 0 1 .4 1 1 0 .5-.5 1-1 1z" /><path class="st0" d="M11 19.3c-.6 0-1-.4-1-1s.4-1 1-1c3.2 0 6.3-2 6.3-6.3S14.2 4.7 11 4.7c-.6 0-1-.4-1-1s.4-1 1-1c4.9 0 8.3 3.4 8.3 8.3s-3.4 8.3-8.3 8.3z" /></symbol><symbol viewBox="0 0 22 22" id="ic-logout"><style>#ic-logout .st0{fill:#ff4762}</style><path class="st0" d="M14.2 21.3h-.1c-4.4 0-6.6-1.7-6.9-5.7 0-.4.3-.8.7-.8.4 0 .8.3.8.7.3 3.1 1.8 4.3 5.5 4.3h.1c4.1 0 5.5-1.4 5.5-5.5V7.8c0-4.1-1.4-5.5-5.5-5.5h-.1c-3.7 0-5.2 1.2-5.5 4.4 0 .4-.4.7-.8.7s-.7-.4-.7-.8c.3-4 2.5-5.8 7-5.8h.1c4.9 0 7 2.1 7 7v6.5c0 4.9-2.1 7-7.1 7z" /><path class="st0" d="M14 11.8H2.6c-.4 0-.8-.3-.8-.8s.3-.8.8-.8H14c.4 0 .8.3.8.8s-.4.8-.8.8z" /><path class="st0" d="M4.9 15.1c-.2 0-.4-.1-.5-.2L1 11.5c-.1-.1-.2-.3-.2-.5s.1-.4.2-.5l3.4-3.4c.3-.3.8-.3 1.1 0s.3.8 0 1.1L2.6 11l2.8 2.8c.3.3.3.8 0 1.1-.2.1-.4.2-.5.2z" /></symbol><symbol viewBox="0 0 34 34" id="ic-moon"><path d="M18.2 34h-.8C8.6 33.6 1.2 26.5.5 17.8 0 10.3 4.3 3.3 11.3.4c2.1-.9 3.1-.1 3.5.3.5.5 1.1 1.5.2 3.4-.7 1.7-1 3.4-1 5.2 0 7 5.8 12.8 12.8 13.1 1 0 2 0 3-.2 2.1-.4 3 .5 3.3 1 .3.5.7 1.7-.6 3.5-3.2 4.6-8.6 7.3-14.3 7.3zM13 2.5c-.1 0-.4.1-.7.2-6 2.5-9.7 8.5-9.2 14.9.4 7.4 6.8 13.6 14.4 13.9 5.2.2 10.1-2.1 13.1-6.2.2-.3.3-.5.4-.6-.1 0-.4 0-.7.1-1.2.2-2.4.3-3.6.2-8.4-.3-15.2-7.3-15.2-15.6 0-2.2.4-4.3 1.3-6.3.1-.3.1-.5.2-.6z" /></symbol><symbol viewBox="0 0 38 38" id="ic-note"><style>#ic-note .st0{fill:#1e1e1e}</style><path class="st0" d="M25 32c-.4 0-.9 0-1.3-.1-.8-.1-1.8-.2-2.7-.5l-2.7-.6c-7.2-1.7-9.7-5.7-8-12.9l1.6-6.6c.4-1.5.8-2.7 1.3-3.8 2.7-5.7 8-5.2 11.7-4.3l2.6.6c3.7.9 6.1 2.3 7.4 4.4 1.3 2.1 1.5 4.8.6 8.6L34 23.4c-1.4 5.9-4.2 8.6-9 8.6zM20.8 5.2c-2.6 0-4.3 1.1-5.4 3.4-.4.8-.8 1.9-1.1 3.2l-1.6 6.6c-1.4 5.9.2 8.5 6.2 9.9l2.7.6c.9.2 1.7.3 2.4.4 4.3.4 6.4-1.4 7.6-6.6l1.6-6.6c.7-3 .6-5.2-.3-6.7-1.1-1.3-2.9-2.4-6-3.1l-2.6-.6c-1.4-.3-2.5-.5-3.5-.5zm13.5 11.3z" /><path class="st0" d="M13.3 35.3c-4.1 0-6.8-2.5-8.5-7.6l-2-6.3c-1.1-3.6-1.2-6.2-.1-8.4C3.8 10.9 6 9.3 9.5 8.2l2.5-.8c.8-.3 1.4-.4 2-.5.5-.1.9.1 1.2.5.3.4.3.9.1 1.3-.4.8-.8 1.9-1.1 3.2l-1.6 6.6c-1.4 5.9.2 8.5 6.2 9.9l2.7.6c.9.2 1.7.3 2.4.4.5 0 1 .4 1.1.9.1.5-.1 1.1-.5 1.4-1 .7-2.4 1.3-4 1.9l-2.5.8c-1.7.6-3.3.9-4.7.9zM12.2 9.9l-1.9.6c-2.9.9-4.6 2.1-5.4 3.6-.8 1.5-.7 3.6.2 6.5l2 6.3c1.8 5.6 4.5 7 10.1 5.1l2.5-.8h.1l-1.5-.3c-7.2-1.7-9.7-5.7-8-12.9l1.6-6.6c.1-.6.2-1 .3-1.5zM27.7 16.7h-.3l-7.7-1.9c-.7-.2-1.1-.8-.9-1.5.2-.7.8-1.1 1.5-.9l7.7 1.9c.7.2 1.1.8.9 1.5-.1.5-.6.9-1.2.9z" /><path class="st0" d="M23.1 22.1h-.3l-4.6-1.2c-.7-.2-1.1-.9-.9-1.5.2-.7.9-1.1 1.5-.9l4.6 1.2c.7.2 1.1.9.9 1.5-.2.5-.7.9-1.2.9z" /></symbol><symbol viewBox="0 0 13 18" id="ic-pen"><path d="M6.7 17.3c-1.3 0-2.3-1-2.3-2.3v-.1c-1.2-.3-2.1-1.4-2.1-2.7V7.3c0-1.2.5-2.3 1.3-3.1v-.4-.5l-.7-.8H1.4c-.4 0-.7-.3-.7-.7 0-.4.3-.7.7-.7h1.7c.2 0 .4.1.5.2l.7.7c.2-.3.5-.6.9-.8.5-.3 1-.4 1.6-.4 1 0 1.9.5 2.5 1.3l.6-.6c.1-.1.3-.2.5-.2H12c.4 0 .7.3.7.7 0 .4-.3.7-.7.7h-1.5l-.7.6c0 .2 0 .3.1.5v.4c.8.8 1.3 1.9 1.3 3.1v4.9c0 1.3-.9 2.4-2.1 2.7-.1 1.4-1.1 2.4-2.4 2.4zm0-5.8c-.5 0-.9.4-.9.9V15c0 .5.4.9.9.9s.9-.4.9-.9v-2.6c.1-.5-.4-.9-.9-.9zm0-1.4c1.3 0 2.3 1 2.3 2.3v1.1c.4-.3.7-.8.7-1.3V7.3c0-.6-.2-1.2-.5-1.7l-.9.9c-.5.3-1 .4-1.5.4-1 0-1.9-.5-2.5-1.3-.4.5-.6 1.1-.6 1.7v4.9c0 .5.3 1 .7 1.3v-1.1c0-1.3 1.1-2.3 2.3-2.3zm0-8c-.9 0-1.7.8-1.7 1.7s.8 1.7 1.7 1.7 1.7-.8 1.7-1.7-.7-1.7-1.7-1.7z" /></symbol><symbol viewBox="0 0 27 27" id="ic-play"><path d="M7.7 26.9c-1.2 0-2.4-.3-3.4-.9C1.9 24.6.7 21.9.7 18.4V8.6C.7 5.1 2 2.3 4.3 1c2.4-1.4 5.4-1.2 8.6.6l8.5 4.9c3.1 1.8 4.9 4.3 4.9 7s-1.7 5.2-4.9 7l-8.5 4.9c-1.8 1-3.5 1.5-5.2 1.5zm0-23.8c-.7 0-1.3.2-1.9.5-1.4.8-2.1 2.6-2.1 5v9.7c0 2.4.8 4.2 2.2 5 1.4.8 3.4.6 5.6-.7l8.5-4.9c2.2-1.2 3.4-2.8 3.4-4.4 0-1.6-1.2-3.2-3.4-4.4L11.5 4c-1.4-.5-2.7-.9-3.8-.9z" /></symbol><symbol viewBox="0 0 32 32" id="ic-receipt"><style>#ic-receipt .st0{fill:#292d32}</style><path class="st0" d="M25.9 15.7h-4.6c-.6 0-1-.4-1-1V5.3c0-2 1.7-3.7 3.7-3.7 1.7 0 3.3.7 4.5 1.9 1.2 1.2 1.9 2.8 1.9 4.5v3.2c-.1 2.7-1.9 4.5-4.5 4.5zm-3.6-2h3.6c1.6 0 2.4-.9 2.4-2.4V8c0-1.1-.5-2.2-1.3-3.1-.8-.8-1.9-1.3-3-1.3-.9 0-1.7.8-1.7 1.7v8.4z" /><path class="st0" d="M12 31.1c-.6 0-1.2-.2-1.7-.7l-2.2-2.2c-.1-.1-.3-.1-.5 0l-2.3 1.7c-.7.5-1.6.6-2.4.2-.8-.4-1.3-1.2-1.3-2.1V8C1.7 4 4 1.7 8 1.7h16c.6 0 1 .4 1 1s-.4 1-1 1c-.9 0-1.7.7-1.7 1.7V28c0 .9-.5 1.7-1.3 2.1-.8.4-1.7.3-2.4-.2l-2.3-1.7c-.1-.1-.3-.1-.4 0l-2.2 2.2c-.5.5-1.1.7-1.7.7zm-4.1-5c.6 0 1.2.2 1.7.7l2.2 2.2c.2.2.3.2.5 0l2.2-2.2c.8-.8 2.1-.9 3-.2l2.3 1.7c.1.1.3.1.4 0 .1 0 .2-.1.2-.3V5.3c0-.6.1-1.2.4-1.7H8C5 3.7 3.7 5 3.7 8v20c0 .2.1.3.2.3s.2.1.3 0l2.3-1.7c.4-.4.9-.5 1.4-.5z" /></symbol><symbol viewBox="0 0 26 26" id="ic-refresh"><style>#ic-refresh .st0{fill:#fff}</style><path class="st0" d="M16 25.3c-.4 0-.8-.3-1-.7-.1-.5.2-1.1.7-1.2 4.7-1.2 7.9-5.5 7.9-10.3 0-5.9-4.8-10.7-10.7-10.7C8.2 2.3 5 5 3.4 6.8h3.2c.6 0 1 .4 1 1s-.4 1-1 1H1c-.1 0-.2-.1-.3-.2-.1-.1-.2-.2-.2-.3-.1-.1-.1-.2-.2-.4V2.5c0-.6.4-1 1-1s1 .4 1 1V5C4.3 3 7.8.4 13 .4 20 .3 25.7 6 25.7 13c0 5.7-3.9 10.8-9.4 12.2-.2.1-.2.1-.3.1zM13 25.7h-.4c-.6 0-1-.5-1-1 0-.6.5-1 1-1h.3c.6 0 1 .4 1 1s-.3 1-.9 1zm-3.3-.5h-.3c-1-.3-2-.7-3-1.3-.5-.3-.6-.9-.3-1.4.3-.5.9-.6 1.4-.4.8.5 1.6.8 2.5 1.1.5.2.8.7.7 1.2-.2.5-.6.8-1 .8zm-5.1-3.1c-.3 0-.5-.1-.7-.3-.7-.8-1.4-1.6-1.9-2.6-.3-.5-.1-1.1.4-1.4.5-.3 1.1-.1 1.4.4.5.8 1 1.5 1.6 2.2.4.4.4 1 0 1.4-.3.2-.5.3-.8.3zM1.7 17c-.4 0-.8-.3-1-.7-.3-1-.4-2.1-.4-3.2 0-.6.4-1 1-1s1 .4 1 1c0 .9.1 1.8.3 2.7.1.5-.2 1.1-.7 1.2h-.2z" /></symbol><symbol viewBox="0 0 56 46" id="ic-reset"><path fill-rule="evenodd" clip-rule="evenodd" d="M23.207 0c-3.027 0-5.95 1.155-8.229 3.252l-10.71 9.857c-5.69 5.236-5.69 14.546 0 19.782l10.71 9.857C17.256 44.844 20.18 46 23.207 46h20.297C50.405 46 56 40.116 56 32.857V13.143C56 5.884 50.405 0 43.504 0H23.207zm3.478 12.85a2.061 2.061 0 00-2.97 0 2.197 2.197 0 000 3.05L30.63 23l-6.915 7.1a2.197 2.197 0 000 3.05c.82.842 2.15.842 2.97 0l6.915-7.1 6.915 7.1c.82.842 2.15.842 2.97 0 .82-.843.82-2.207 0-3.05L36.57 23l6.915-7.1c.82-.842.82-2.208 0-3.05a2.061 2.061 0 00-2.97 0l-6.915 7.1-6.915-7.1z" /></symbol><symbol viewBox="0 0 30 34" id="ic-rotate"><style>#ic-rotate .st0{fill:#29cf8e}</style><path class="st0" d="M15 34C6.8 34 .1 27.3.1 19.1c0-3 .9-5.8 2.5-8.3.4-.6 1.2-.7 1.7-.3.6.4.7 1.2.3 1.7-1.4 2.1-2.1 4.4-2.1 6.9 0 6.8 5.6 12.4 12.4 12.4 6.8 0 12.4-5.6 12.4-12.4 0-6.9-5.6-12.4-12.4-12.4-1.4 0-2.8.2-4.2.6-.7.2-1.4-.2-1.5-.8-.2-.7.2-1.4.8-1.5 1.6-.5 3.3-.7 4.9-.7 8.2 0 14.9 6.7 14.9 14.9S23.2 34 15 34z" /><path class="st0" d="M8.5 7.7c-.3 0-.6-.1-.8-.3-.5-.4-.6-1.2-.1-1.7L12.2.5c.5-.5 1.2-.6 1.8-.1s.6 1.2.1 1.8L9.4 7.3c-.2.3-.6.4-.9.4z" /><path class="st0" d="M13.8 11.6c-.3 0-.5-.1-.7-.2L7.8 7.5c-.6-.4-.7-1.2-.3-1.8.4-.6 1.2-.7 1.7-.3l5.3 3.9c.6.4.7 1.2.3 1.7-.2.4-.6.6-1 .6z" /></symbol><symbol viewBox="0 0 28 28" id="ic-search"><style>#ic-search .st0{fill:#292d32}</style><path class="st0" d="M13.4 25.8c-6.8 0-12.3-5.5-12.3-12.3 0-6.8 5.5-12.3 12.3-12.3 6.8 0 12.3 5.5 12.3 12.3.1 6.7-5.5 12.3-12.3 12.3zm0-22.2C8 3.6 3.6 8 3.6 13.4s4.4 9.8 9.8 9.8 9.8-4.4 9.8-9.8-4.4-9.8-9.8-9.8z" /><path class="st0" d="M25.7 26.9c-.3 0-.6-.1-.9-.4l-2.3-2.3c-.5-.5-.5-1.3 0-1.8s1.3-.5 1.8 0l2.3 2.3c.5.5.5 1.3 0 1.8-.3.3-.6.4-.9.4z" /></symbol><symbol viewBox="0 0 34 32" id="ic-setting"><style>#ic-setting .st0{fill:#1e1e1e}</style><path class="st0" d="M17 21.9c-3.3 0-5.9-2.7-5.9-5.9s2.7-5.9 5.9-5.9 5.9 2.7 5.9 5.9-2.6 5.9-5.9 5.9zm0-9.4c-1.9 0-3.5 1.6-3.5 3.5s1.6 3.5 3.5 3.5 3.5-1.6 3.5-3.5-1.6-3.5-3.5-3.5z" /><path class="st0" d="M22 32c-1.3 0-2.6-.7-3.3-1.9l-.2-.3c-.4-.8-1-1.2-1.5-1.2s-1.1.4-1.5 1.2l-.2.3c-1.1 1.8-3.5 2.5-5.3 1.4L7.3 30c-1-.6-1.7-1.5-2-2.5-.3-1.1-.1-2.2.4-3.2.5-.8.6-1.5.3-1.9-.3-.4-.9-.7-1.8-.7-2.3 0-4.2-1.9-4.2-4.2v-2.8c0-2.3 1.9-4.2 4.2-4.2.9 0 1.6-.3 1.8-.7.3-.4.1-1.1-.3-1.9-.6-1-.7-2.1-.4-3.2.3-1.1 1-2 2-2.5L10 .7c1.8-1.1 4.2-.5 5.2 1.4l.2.3c.6.6 1.1 1 1.6 1s1.1-.4 1.5-1.2l.2-.3C19.8.1 22.2-.6 24 .5L26.7 2c1 .6 1.7 1.5 2 2.5.3 1.1.1 2.2-.4 3.2-.5.8-.6 1.5-.3 1.9.3.4.9.7 1.8.7 2.3 0 4.2 1.9 4.2 4.2v2.8c0 2.3-1.9 4.2-4.2 4.2-.9 0-1.6.3-1.8.7-.3.4-.1 1.1.3 1.9 1.2 2 .5 4.6-1.6 5.7L24 31.3c-.7.5-1.3.7-2 .7zm-5-5.9c1.4 0 2.7.9 3.6 2.5l.2.3c.2.3.5.5.8.6.4.1.7 0 1-.1l2.7-1.6c.4-.2.7-.6.8-1 .1-.4.1-.9-.2-1.3-.9-1.6-1-3.2-.3-4.4.7-1.2 2.1-1.9 3.9-1.9 1 0 1.7-.8 1.7-1.7v-2.8c0-1-.8-1.7-1.7-1.7-1.8 0-3.2-.7-3.9-1.9-.7-1.2-.6-2.8.3-4.4.2-.4.3-.9.2-1.3-.1-.4-.4-.8-.8-1l-2.7-1.5c-.3-.2-.7-.2-1-.1-.4.1-.7.3-.9.6l-.2.3C19.7 5 18.4 5.9 17 5.9s-2.7-.9-3.6-2.5l-.2-.3c-.2-.3-.5-.5-.8-.6-.4-.1-.7 0-1 .1L8.6 4.2c-.4.2-.7.6-.8 1-.1.5-.1 1 .2 1.4.9 1.5 1 3.1.3 4.4-.7 1.2-2.1 1.9-3.9 1.9-1 0-1.7.8-1.7 1.7v2.8c0 1 .8 1.7 1.7 1.7 1.8 0 3.2.7 3.9 1.9.7 1.3.6 2.9-.3 4.4-.2.4-.3.9-.2 1.3.1.4.4.8.8 1l2.7 1.5c.7.4 1.5.2 1.9-.5l.2-.3c.9-1.4 2.2-2.3 3.6-2.3z" /></symbol><symbol viewBox="0 0 38 38" id="ic-sun"><style>#ic-sun .st0{fill:#1e1e1e}</style><path class="st0" d="M19 30.5c-6.4 0-11.5-5.2-11.5-11.5S12.6 7.5 19 7.5 30.5 12.6 30.5 19 25.4 30.5 19 30.5zM19 10c-5 0-9 4.1-9 9 0 5 4.1 9 9 9 5 0 9-4.1 9-9 0-5-4-9-9-9zM19 36.1c-.7 0-1.3-.6-1.3-1.3v-.1c0-.7.6-1.3 1.3-1.3s1.3.6 1.3 1.3v.1c0 .7-.6 1.3-1.3 1.3zm11.3-4.5c-.3 0-.6-.1-.9-.4l-.2-.2c-.5-.5-.5-1.3 0-1.8s1.3-.5 1.8 0l.2.2c.5.5.5 1.3 0 1.8-.3.2-.6.4-.9.4zm-22.6 0c-.3 0-.6-.1-.9-.4-.2-.2-.4-.6-.4-.9 0-.3.1-.6.4-.9l.2-.2c.5-.5 1.3-.5 1.8 0 .2.2.4.6.4.9 0 .3-.1.6-.4.9l-.2.2c-.3.2-.6.4-.9.4zm27.1-11.3h-.1c-.7 0-1.3-.6-1.3-1.3s.6-1.3 1.3-1.3h.1c.7 0 1.3.6 1.3 1.3s-.6 1.3-1.3 1.3zm-31.5 0h-.1c-.7 0-1.3-.6-1.3-1.3s.6-1.3 1.3-1.3h.1c.7 0 1.3.6 1.3 1.3s-.6 1.3-1.3 1.3zM30.1 9.2c-.3 0-.6-.1-.9-.4-.2-.2-.4-.6-.4-.9 0-.3.1-.6.4-.9l.2-.2c.5-.5 1.3-.5 1.8 0 .2.2.4.6.4.9 0 .3-.1.6-.4.9l-.2.2c-.3.2-.6.4-.9.4zm-22.2 0c-.3 0-.6-.2-.9-.4l-.2-.2c-.2-.3-.4-.6-.4-.9s.1-.6.4-.9c.5-.5 1.3-.5 1.8 0l.2.2c.2.3.4.6.4.9s-.2.6-.4.9-.6.4-.9.4zM19 4.5c-.7 0-1.3-.6-1.3-1.3 0-.7.6-1.3 1.3-1.3s1.3.6 1.3 1.3v.1c0 .7-.6 1.2-1.3 1.2z" /></symbol><symbol viewBox="0 0 30 30" id="ic-tableware"><path d="M15 0C6.7 0 0 6.7 0 15c0 5.8 3.3 10.8 8.1 13.3l.5-10.2c0-.7-.4-1.4-1-1.7-1.2-.7-2.1-2.1-2.1-3.7C5.5 9.4 7.2 6 9.4 6s3.9 3.4 3.9 6.7c0 1.6-.8 3-2.1 3.7-.6.4-1 1-1 1.7l.5 11.3c1.4.4 2.8.6 4.3.6 1.2 0 2.3-.1 3.4-.4l.5-11.5c0-.7-.3-1.4-1-1.7-1.2-.7-2-2-1.9-3.4l.3-6.3c0-.4.3-.7.7-.7.4 0 .7.3.7.7l-.1 5.4c0 .4.3.7.7.7.4 0 .7-.3.7-.7l.1-5.6c0-.3.3-.6.6-.6s.6.3.6.6l.1 5.6c0 .4.3.7.7.7.4 0 .7-.3.7-.7l-.1-5.4c0-.4.3-.8.7-.8.4 0 .7.3.7.7l.3 6.2c.1 1.5-.7 2.8-1.9 3.4-.6.3-1 1-1 1.7l.5 10.8c5.3-2.3 9-7.6 9-13.7 0-8.3-6.7-15-15-15z" /></symbol><symbol viewBox="0 0 26 26" id="ic-tasks"><style>#ic-tasks .st0{fill:#292d32}</style><path class="st0" d="M19.6 10.4h-6.1c-.6 0-1-.4-1-1s.4-1 1-1h6.1c.6 0 1 .4 1 1s-.5 1-1 1zM7.3 11.2c-.3 0-.5-.1-.7-.3l-.9-.9c-.4-.4-.4-1 0-1.4s1-.4 1.4 0l.2.2 1.9-1.9c.4-.4 1-.4 1.4 0s.4 1 0 1.4L8 10.9c-.2.2-.4.3-.7.3zM19.6 18.5h-6.1c-.6 0-1-.4-1-1s.4-1 1-1h6.1c.6 0 1 .4 1 1s-.5 1-1 1zM7.3 19.4c-.3 0-.5-.1-.7-.3l-.9-.9c-.4-.4-.4-1 0-1.4s1-.4 1.4 0l.2.2 1.9-1.9c.4-.4 1-.4 1.4 0s.4 1 0 1.4L8 19.1c-.2.2-.4.3-.7.3z" /><path class="st0" d="M16.5 25.7h-7C3.1 25.7.3 23 .3 16.5v-7C.3 3.1 3 .3 9.5.3h7c6.4 0 9.2 2.7 9.2 9.2v7c0 6.4-2.8 9.2-9.2 9.2zm-7-23.4c-5.3 0-7.2 1.9-7.2 7.2v7c0 5.3 1.9 7.2 7.2 7.2h7c5.3 0 7.2-1.9 7.2-7.2v-7c0-5.3-1.9-7.2-7.2-7.2h-7z" /></symbol><symbol viewBox="0 0 31 34" id="ic-trash"><style>#ic-trash .st0{fill:#1e1e1e}</style><path class="st0" d="M1.3 8.8C.7 8.8.1 8.3.1 7.7 0 7 .5 6.3 1.2 6.3L4.4 6c3.1-.3 6.3-.5 9.5-.5 5.2 0 10.6.3 15.9.8.7 0 1.2.7 1.1 1.3-.1.7-.7 1.2-1.4 1.1-5.2-.5-10.4-.7-15.6-.7-3.1 0-6.2.2-9.2.5l-3.3.3h-.1z" /><path class="st0" d="M21 7.2c-.6 0-1.1-.4-1.2-1l-.3-2c-.2-1.4-.3-1.6-1.9-1.6h-4.1c-1.6 0-1.6.2-1.9 1.6l-.3 2.1c-.1.7-.8 1.1-1.4 1-.8-.3-1.3-.9-1.1-1.6l.3-2.1c.3-1.5.6-3.6 4.3-3.6h4.1c3.7 0 4.1 2.2 4.3 3.7l.3 2c.1.7-.3 1.3-1 1.4.1.1 0 .1-.1.1zM20.6 34H10.4c-5.6 0-5.8-3.1-6-5.6l-1-15.9c0-.7.5-1.3 1.2-1.3s1.3.5 1.3 1.2l1 15.9c.2 2.4.2 3.2 3.5 3.2h10.1c3.2 0 3.3-.8 3.5-3.2l1-15.9c0-.7.6-1.2 1.3-1.2.7 0 1.2.6 1.2 1.3l-1 15.9c-.2 2.5-.4 5.6-5.9 5.6z" /><path class="st0" d="M18.1 25.3h-5.2c-.7 0-1.2-.6-1.2-1.2s.6-1.2 1.2-1.2h5.2c.7 0 1.2.6 1.2 1.2s-.5 1.2-1.2 1.2zM19.4 19h-7.9c-.7 0-1.2-.6-1.2-1.2 0-.7.6-1.2 1.2-1.2h7.9c.7 0 1.2.6 1.2 1.2.1.7-.5 1.2-1.2 1.2z" /></symbol><symbol viewBox="0 0 28 22" id="ic-undo"><style>#ic-undo .st0{fill:#1f242c}</style><path class="st0" d="M18.8 22H6.5c-.7 0-1.2-.5-1.2-1.2s.5-1.2 1.2-1.2h12.4c3.6 0 6.5-2.9 6.5-6.5s-2.9-6.5-6.5-6.5h-17C1.1 6.5.6 6 .6 5.3s.5-1.2 1.2-1.2h17c4.9 0 9 4 9 9 0 4.9-4 8.9-9 8.9z" /><path class="st0" d="M5.4 10.4c-.3 0-.6-.1-.9-.4l-4-4C0 5.5 0 4.7.5 4.3l4-4C5-.2 5.8-.2 6.2.3s.5 1.3 0 1.7L3.1 5.2l3.1 3.1c.5.5.5 1.3 0 1.7-.2.3-.5.4-.8.4z" /></symbol><symbol viewBox="0 0 26 22" id="ic-video"><style>#ic-video .st0{fill:#292d32}</style><path class="st0" d="M13.6 21.8H6.2c-4.4 0-5.9-3.1-5.9-5.9V6.1C.3 1.8 2 .2 6.2.2h7.4c4.3 0 5.9 1.7 5.9 5.9v9.8c0 4.3-1.6 5.9-5.9 5.9zM6.2 2.2c-3.1 0-3.9.8-3.9 3.9v9.8c0 1.8.7 3.9 3.9 3.9h7.4c3.1 0 3.9-.8 3.9-3.9V6.1c0-3.1-.8-3.9-3.9-3.9H6.2z" /><path class="st0" d="M23.2 18.5c-.6 0-1.3-.2-2-.7L18 15.5c-.3-.2-.4-.5-.4-.8V7.3c0-.3.2-.6.4-.8l3.2-2.3c1.1-.8 2.2-.9 3.1-.5.9.5 1.4 1.5 1.4 2.8v8.9c0 1.3-.5 2.3-1.4 2.8-.4.2-.7.3-1.1.3zm-3.7-4.3l2.8 2c.5.3.8.4 1 .3.2-.1.3-.4.3-1V6.6c0-.6-.2-.9-.3-1-.2-.1-.5 0-1 .3l-2.8 2v6.3zM12.4 10.8c-1.5 0-2.8-1.2-2.8-2.8s1.2-2.8 2.8-2.8c1.5 0 2.8 1.2 2.8 2.8s-1.3 2.8-2.8 2.8zm0-3.5c-.4 0-.8.3-.8.8s.3.8.8.8.8-.3.8-.8-.4-.8-.8-.8z" /></symbol></defs></svg>