<svg width="310" height="75" viewBox="0 0 310 75" fill="none" xmlns="http://www.w3.org/2000/svg">
<path d="M92.7793 17.7783H107.844C107.992 19.6174 108.134 21.4304 108.338 23.8796C110.455 21.4896 113.084 19.6077 116.03 18.3738C118.975 17.1399 122.16 16.5858 125.349 16.7527C131.74 17.11 137.551 18.9753 141.22 25.0708C148.516 16.189 157.545 15.1925 167.45 18.2838C170.612 19.2073 173.367 21.1752 175.267 23.8663C177.166 26.5573 178.098 29.8128 177.91 33.1013C178.226 46.5533 178 60.0169 178 73.7187H162.601V64.3227C162.601 56.0946 162.714 47.8636 162.548 39.6268C162.412 32.7875 159.379 29.3708 153.804 29.2226C152.409 29.1521 151.016 29.3789 149.715 29.8881C148.415 30.3972 147.238 31.177 146.262 32.1757C145.286 33.1745 144.534 34.3693 144.055 35.6809C143.576 36.9926 143.381 38.3911 143.483 39.7837C143.289 50.9666 143.431 62.1552 143.431 73.6432H127.417V69.4216C127.417 59.305 127.437 49.1856 127.417 39.069C127.4 32.8573 124.883 29.7717 119.555 29.3156C117.047 29.0043 114.517 29.6884 112.507 31.2212C110.497 32.754 109.167 35.0133 108.804 37.5146C108.348 40.5821 108.143 43.6819 108.191 46.7828C108.113 55.6675 108.166 64.5493 108.166 73.6984H92.8162C92.7784 55.1387 92.7793 36.704 92.7793 17.7783Z" fill="#1F242C"/>
<path d="M36.6966 73.7882C36.2666 71.9694 35.8392 70.1622 35.5603 68.9856C35.7549 69.8107 30.1509 74.3809 21.1355 74.3809C11.292 74.3809 1.37885 71.766 0.190543 61.2747C-0.360558 57.8344 0.292251 54.3095 2.03904 51.2949C3.78583 48.2804 6.51901 45.961 9.77777 44.7284C16.1696 42.3402 22.9517 40.9514 29.5353 39.0978C35.7732 37.3546 35.543 31.4188 30.2262 28.5251C23.5438 24.8759 16.7134 29.6872 14.0578 35.9571C10.4058 35.2975 6.71357 34.6409 3.01791 33.9611C2.3671 33.839 1.73619 33.6182 1.03889 33.4294C1.47492 29.4772 3.23338 25.7881 6.02828 22.96C8.82318 20.1319 12.4902 18.3305 16.4369 17.8478C22.5283 16.849 28.7381 16.8069 34.8424 17.7228C43.9886 19.1 49.0324 25.55 49.3694 34.9518C49.7616 45.4577 49.8209 63.2125 50.1085 73.7213L36.6966 73.7882ZM35.2439 48.2934C30.3048 49.6996 25.4127 51.0186 20.5694 52.4946C16.0864 53.8659 14.4679 56.0972 15.3133 59.7087C16.2431 63.7094 19.4531 64.3573 22.835 64.2498C30.7202 64.0057 35.7847 57.5499 35.2269 48.2934H35.2439Z" fill="#1F242C"/>
<path d="M291.607 31.3141C289.555 31.8603 287.906 32.3543 286.227 32.732C284.15 33.2055 282.046 33.5862 279.754 34.0452C278.952 31.6218 277.275 29.5844 275.051 28.331C272.827 27.0775 270.216 26.6982 267.728 27.2669C265.093 27.6156 262.239 28.8939 262.553 31.8836C262.83 32.9167 263.334 33.875 264.028 34.6887C264.722 35.5025 265.589 36.1511 266.566 36.5874C271.546 38.5921 276.891 39.67 281.914 41.576C291.793 45.3181 295.698 52.846 292.665 62.7853C291.665 65.833 289.785 68.5162 287.261 70.4962C278.679 76.9724 261.084 76.3593 253.001 69.3341C250.109 66.6083 247.867 63.2656 246.445 59.5545C249.83 58.5725 257.251 56.4981 259.564 55.8676C260.339 58.6632 262.17 61.0487 264.669 62.5213C267.169 63.9939 270.142 64.4385 272.963 63.7615C275.612 63.4158 277.99 62.5994 278.568 59.4645C278.835 58.1183 278.574 56.7208 277.836 55.5635C277.098 54.4061 275.942 53.5783 274.608 53.2528C271.241 51.8901 267.716 50.9284 264.279 49.7663C262.112 49.0225 259.922 48.3136 257.841 47.3751C255.139 46.4703 252.777 44.7609 251.073 42.476C249.369 40.1911 248.404 37.44 248.308 34.5914C247.911 31.475 248.531 28.3137 250.074 25.5775C251.618 22.8414 254.004 20.6765 256.877 19.4049C261.083 17.3602 265.718 16.3505 270.394 16.4602C275.069 16.5699 279.651 17.7957 283.757 20.0354C285.848 21.1816 287.644 22.7964 289.006 24.7532C290.368 26.71 291.258 28.9557 291.607 31.3141Z" fill="#1F242C"/>
<path d="M88.0553 62.1609V73.7824C81.8842 74.1195 75.6778 74.6279 69.8554 72.1787C63.1265 69.3488 61.1393 63.3986 61.0172 56.6871C60.8778 49.2813 60.9707 41.8696 60.9591 34.458V29.6844H50.4355V18.1529C61.6562 15.6426 61.656 15.6426 62.792 0H76.7032V17.4817H87.9971V29.4839H76.8721V38.5371C76.8721 43.5228 76.8314 48.5084 76.8721 53.4912C76.9418 60.13 78.6558 61.8355 85.2336 62.0011C86.0471 62.0185 86.8495 62.0882 88.0553 62.1609Z" fill="#1F242C"/>
<path d="M303.438 62.1982C302.68 62.1979 301.93 62.3467 301.23 62.6364C300.53 62.9261 299.893 63.3508 299.358 63.8864C298.822 64.422 298.396 65.0579 298.106 65.7578C297.816 66.4577 297.668 67.2078 297.668 67.9654C297.668 69.4958 298.275 70.9634 299.358 72.0455C300.44 73.1276 301.907 73.7356 303.438 73.7356C304.195 73.7356 304.945 73.5863 305.645 73.2963C306.345 73.0063 306.981 72.5812 307.516 72.0453C308.052 71.5095 308.476 70.8734 308.766 70.1734C309.056 69.4733 309.205 68.7231 309.204 67.9654C309.204 66.4359 308.598 64.969 307.516 63.8874C306.435 62.8059 304.967 62.1982 303.438 62.1982Z" fill="#1F242C"/>
<path d="M238.662 60.261C238.964 58.271 238.587 56.2375 237.594 54.4868C236.601 52.7362 235.049 51.3699 233.186 50.6075C231.323 49.8451 229.258 49.7307 227.323 50.2827C225.387 50.8346 223.694 52.021 222.514 53.6512C221.55 53.1629 220.491 52.8905 219.411 52.8529C218.331 52.8153 217.256 53.0134 216.26 53.4335C215.265 53.8535 214.374 54.4854 213.647 55.2851C212.921 56.0849 212.377 57.0334 212.054 58.0645C210.865 58.139 209.707 58.4663 208.655 59.0244C207.603 59.5826 206.681 60.3587 205.952 61.3011C205.129 60.9721 204.332 60.5837 203.565 60.1389C197.045 56.3358 194.727 45.49 198.538 37.2038C200.107 33.8687 202.892 31.2592 206.321 29.9091C209.751 28.5589 213.566 28.57 216.988 29.9403C219.645 30.9483 221.962 32.6916 223.666 34.9665C225.369 37.2414 226.391 39.9542 226.611 42.7879C226.604 44.5273 226.506 46.2651 226.32 47.9944C227.726 47.3263 229.265 46.9846 230.821 46.9948C232.378 47.0051 233.911 47.3669 235.308 48.0534C236.705 48.7398 237.929 49.7332 238.888 50.9591C239.847 52.185 240.517 53.6119 240.847 55.133C241.715 52.1558 242.125 49.064 242.064 45.9635C241.814 28.505 231.509 17.0636 211.532 16.744C193.303 16.4535 181.382 28.2668 181.408 45.7979C181.437 63.4191 193.695 74.8867 211.973 74.9129C212.121 74.9129 212.263 74.9129 212.409 74.9129C212.452 74.9129 212.49 74.9129 212.533 74.9129H239.19C240.163 74.893 241.123 74.6796 242.013 74.2853C242.903 73.891 243.705 73.3235 244.374 72.616C245.042 71.9085 245.563 71.0751 245.906 70.1643C246.249 69.2535 246.408 68.2836 246.372 67.311C246.337 66.3383 246.107 65.3825 245.699 64.4991C245.29 63.6157 244.71 62.8224 243.992 62.1655C243.274 61.5085 242.433 61.0011 241.516 60.6726C240.6 60.3441 239.628 60.2012 238.656 60.2523L238.662 60.261Z" fill="#1F242C"/>
</svg>
