<svg width="98" height="87" viewBox="0 0 98 87" fill="none" xmlns="http://www.w3.org/2000/svg">
<path d="M85.7848 65.0879C86.2349 62.1119 85.6724 59.0708 84.1899 56.4526C82.7073 53.8345 80.39 51.7913 77.609 50.6511C74.828 49.5109 71.7448 49.3398 68.855 50.1653C65.9653 50.9907 63.437 52.7649 61.6748 55.2029C60.2357 54.4727 58.6548 54.0654 57.0426 54.0091C55.4304 53.9529 53.8246 54.2491 52.3384 54.8773C50.8521 55.5055 49.5215 56.4505 48.4369 57.6465C47.3522 58.8426 46.5401 60.261 46.0583 61.8031C44.2836 61.9145 42.5542 62.404 40.9834 63.2387C39.4125 64.0734 38.0358 65.2341 36.9485 66.6435C35.7195 66.1514 34.5287 65.5705 33.3838 64.9054C23.6497 59.2178 20.1882 42.9977 25.8794 30.6056C28.222 25.6181 32.3789 21.7155 37.4992 19.6963C42.6194 17.6771 48.3166 17.6938 53.4249 19.743C57.3927 21.2505 60.8507 23.8576 63.3947 27.2598C65.9386 30.662 67.4635 34.7189 67.7918 38.9568C67.7812 41.558 67.636 44.1569 67.3576 46.7432C69.4565 45.744 71.7544 45.233 74.0782 45.2483C76.4021 45.2636 78.692 45.8047 80.7777 46.8313C82.8633 47.858 84.6896 49.3435 86.1215 51.1769C87.5535 53.0102 88.5538 55.1441 89.0466 57.4189C90.3426 52.9666 90.9552 48.3428 90.8639 43.706C90.4908 17.5966 75.1056 0.485794 45.2788 0.00783892C18.0635 -0.426666 0.264735 17.2403 0.303775 43.4583C0.347153 69.811 18.6484 86.9609 45.9375 87C46.1588 87 46.3709 87 46.5878 87C46.6529 87 46.7091 87 46.7742 87H86.5727C88.0255 86.9702 89.4591 86.6512 90.7876 86.0615C92.1161 85.4718 93.3142 84.6232 94.3121 83.5651C95.31 82.507 96.0874 81.2606 96.5996 79.8985C97.1119 78.5364 97.3494 77.0858 97.2965 75.6313C97.2435 74.1767 96.9003 72.7472 96.2904 71.4261C95.6805 70.105 94.8145 68.9186 93.7423 67.9362C92.6702 66.9537 91.4142 66.1947 90.0463 65.7035C88.6785 65.2123 87.2274 64.9986 85.7763 65.0749L85.7848 65.0879Z" fill="#1F242C"/>
</svg>
