<svg width="127" height="32" viewBox="0 0 127 32" fill="none" xmlns="http://www.w3.org/2000/svg">
<g opacity="0.2">
<path d="M37.874 8.04883H44.0236C44.0841 8.79957 44.1421 9.53965 44.2251 10.5395C45.0895 9.56383 46.1628 8.79561 47.365 8.29193C48.5673 7.78824 49.8675 7.56205 51.1692 7.63017C53.7784 7.77605 56.1503 8.53747 57.6482 11.0257C60.6263 7.40008 64.3123 6.99328 68.3554 8.25519C69.6461 8.63219 70.7708 9.43549 71.5463 10.534C72.3217 11.6325 72.7021 12.9614 72.6251 14.3039C72.7544 19.7951 72.6622 25.2911 72.6622 30.8843H66.376V27.0488C66.376 23.69 66.4222 20.33 66.3546 16.9676C66.2988 14.1758 65.0609 12.781 62.7849 12.7205C62.2156 12.6918 61.6467 12.7844 61.1159 12.9922C60.5852 13.2 60.1048 13.5183 59.7064 13.926C59.308 14.3337 59.0008 14.8215 58.8053 15.3569C58.6098 15.8923 58.53 16.4632 58.5719 17.0317C58.4925 21.5967 58.5505 26.164 58.5505 30.8535H52.0135V29.1302C52.0135 25.0005 52.0218 20.8696 52.0135 16.7399C52.0064 14.2042 50.9793 12.9447 48.8041 12.7585C47.7802 12.6314 46.7475 12.9107 45.9271 13.5364C45.1067 14.1621 44.5639 15.0844 44.4156 16.1054C44.2293 17.3576 44.1456 18.623 44.1655 19.8888C44.1334 23.5156 44.155 27.1413 44.155 30.876H37.8891C37.8737 23.2998 37.874 15.7745 37.874 8.04883Z" fill="#1F242C"/>
<path d="M14.98 30.9126C14.8044 30.1701 14.63 29.4324 14.5161 28.9521C14.5956 29.2889 12.3079 31.1545 8.62773 31.1545C4.60952 31.1545 0.562861 30.0871 0.0777818 25.8044C-0.147184 24.4001 0.1193 22.9612 0.83236 21.7306C1.54542 20.5 2.66113 19.5532 3.99139 19.0501C6.60062 18.0752 9.36913 17.5083 12.0566 16.7516C14.603 16.04 14.5091 13.617 12.3387 12.4357C9.61083 10.9461 6.82258 12.9101 5.73856 15.4695C4.24774 15.2003 2.74055 14.9322 1.23194 14.6547C0.966277 14.6049 0.708732 14.5148 0.424088 14.4377C0.602079 12.8244 1.3199 11.3184 2.46081 10.164C3.60172 9.00948 5.09862 8.27413 6.70973 8.07709C9.19629 7.66939 11.7312 7.65219 14.2231 8.0261C17.9566 8.58827 20.0156 11.2212 20.1531 15.0592C20.3133 19.3478 20.3374 26.5955 20.4549 30.8853L14.98 30.9126ZM14.387 20.5053C12.3707 21.0794 10.3738 21.6178 8.39667 22.2203C6.56665 22.7801 5.90594 23.691 6.25107 25.1652C6.6306 26.7983 7.94099 27.0628 9.32151 27.0189C12.5403 26.9193 14.6077 24.284 14.38 20.5053H14.387Z" fill="#1F242C"/>
<path d="M119.038 13.5743C118.201 13.7972 117.527 13.9989 116.842 14.1531C115.994 14.3464 115.135 14.5017 114.199 14.6891C113.872 13.6999 113.187 12.8682 112.28 12.3565C111.372 11.8449 110.306 11.69 109.29 11.9222C108.215 12.0645 107.05 12.5863 107.178 13.8067C107.291 14.2285 107.497 14.6197 107.78 14.9518C108.063 15.284 108.417 15.5488 108.816 15.7269C110.849 16.5452 113.031 16.9852 115.081 17.7633C119.114 19.2909 120.708 22.3638 119.47 26.4212C119.062 27.6653 118.294 28.7606 117.264 29.5688C113.761 32.2125 106.578 31.9622 103.279 29.0944C102.098 27.9817 101.183 26.6172 100.603 25.1023C101.984 24.7015 105.013 23.8546 105.958 23.5973C106.274 24.7385 107.021 25.7123 108.042 26.3134C109.062 26.9145 110.276 27.096 111.427 26.8197C112.509 26.6785 113.479 26.3453 113.715 25.0656C113.825 24.516 113.718 23.9456 113.416 23.4731C113.115 23.0007 112.643 22.6628 112.099 22.5299C110.724 21.9736 109.286 21.5811 107.883 21.1066C106.998 20.803 106.104 20.5136 105.255 20.1306C104.151 19.7612 103.187 19.0634 102.492 18.1307C101.796 17.198 101.402 16.0749 101.363 14.9121C101.201 13.64 101.454 12.3495 102.084 11.2325C102.714 10.1156 103.688 9.23189 104.861 8.71281C106.578 7.87811 108.47 7.46597 110.378 7.51074C112.287 7.55551 114.158 8.05589 115.834 8.97017C116.687 9.43807 117.42 10.0972 117.976 10.896C118.532 11.6948 118.895 12.6115 119.038 13.5743Z" fill="#1F242C"/>
<path d="M35.9447 26.1663V30.9104C33.4256 31.048 30.8921 31.2555 28.5153 30.2557C25.7685 29.1005 24.9573 26.6716 24.9075 23.9319C24.8505 20.9087 24.8885 17.8832 24.8837 14.8577V12.9091H20.5879V8.20178C25.1683 7.17706 25.1682 7.17706 25.6319 0.791565H31.3107V7.92781H35.9209V12.8272H31.3796V16.5228C31.3796 18.558 31.363 20.5932 31.3796 22.6273C31.408 25.3373 32.1077 26.0335 34.7928 26.1011C35.1249 26.1082 35.4525 26.1367 35.9447 26.1663Z" fill="#1F242C"/>
<path d="M123.866 26.1816C123.557 26.1815 123.251 26.2423 122.965 26.3605C122.679 26.4787 122.419 26.6521 122.2 26.8708C121.982 27.0894 121.808 27.349 121.69 27.6347C121.571 27.9204 121.511 28.2266 121.511 28.5359C121.511 29.1606 121.759 29.7597 122.2 30.2014C122.642 30.6431 123.241 30.8913 123.866 30.8913C124.175 30.8913 124.481 30.8304 124.767 30.712C125.053 30.5936 125.312 30.4201 125.531 30.2013C125.75 29.9826 125.923 29.7229 126.041 29.4372C126.159 29.1514 126.22 28.8451 126.22 28.5359C126.22 27.9115 125.972 27.3127 125.531 26.8712C125.089 26.4297 124.49 26.1816 123.866 26.1816Z" fill="#1F242C"/>
<path d="M97.4254 25.3907C97.5484 24.5784 97.3947 23.7483 96.9893 23.0336C96.584 22.319 95.9504 21.7613 95.19 21.4501C94.4297 21.1388 93.5867 21.0921 92.7966 21.3174C92.0065 21.5428 91.3152 22.027 90.8334 22.6925C90.4399 22.4932 90.0077 22.382 89.5669 22.3667C89.1261 22.3513 88.687 22.4322 88.2807 22.6036C87.8743 22.7751 87.5105 23.033 87.214 23.3595C86.9174 23.686 86.6954 24.0731 86.5636 24.4941C86.0784 24.5245 85.6056 24.6581 85.1761 24.8859C84.7466 25.1138 84.3702 25.4306 84.0729 25.8153C83.7368 25.681 83.4113 25.5224 83.0982 25.3409C80.4368 23.7884 79.4904 19.361 81.0465 15.9785C81.687 14.6171 82.8235 13.5519 84.2234 13.0007C85.6234 12.4495 87.1811 12.4541 88.5778 13.0135C89.6626 13.4249 90.6081 14.1366 91.3036 15.0652C91.9992 15.9939 92.4161 17.1012 92.5058 18.258C92.5029 18.968 92.4632 19.6774 92.3871 20.3834C92.961 20.1106 93.5893 19.9712 94.2246 19.9753C94.86 19.9795 95.4861 20.1272 96.0564 20.4074C96.6266 20.6876 97.1259 21.0931 97.5175 21.5936C97.909 22.094 98.1825 22.6765 98.3172 23.2974C98.6715 22.0821 98.839 20.82 98.8141 19.5543C98.7121 12.4276 94.5055 7.75705 86.3505 7.62659C78.9095 7.50799 74.0431 12.3303 74.0537 19.4867C74.0656 26.6799 79.0694 31.3611 86.5306 31.3718C86.5911 31.3718 86.6491 31.3718 86.7084 31.3718C86.7262 31.3718 86.7416 31.3718 86.7594 31.3718H97.6408C98.038 31.3636 98.43 31.2766 98.7932 31.1156C99.1565 30.9546 99.484 30.723 99.7569 30.4342C100.03 30.1454 100.242 29.8052 100.382 29.4334C100.522 29.0616 100.587 28.6656 100.573 28.2686C100.558 27.8715 100.465 27.4814 100.298 27.1207C100.131 26.7601 99.8942 26.4363 99.6011 26.1681C99.3079 25.9 98.9645 25.6928 98.5905 25.5587C98.2165 25.4246 97.8198 25.3663 97.4231 25.3871L97.4254 25.3907Z" fill="#1F242C"/>
</g>
</svg>
