<svg width="45" height="40" viewBox="0 0 45 40" fill="none" xmlns="http://www.w3.org/2000/svg">
<path d="M39.6562 29.9255C39.865 28.5572 39.604 27.159 38.9163 25.9552C38.2285 24.7515 37.1534 23.8121 35.8633 23.2879C34.5731 22.7636 33.1428 22.685 31.8022 23.0645C30.4616 23.444 29.2887 24.2597 28.4711 25.3807C27.8035 25.0449 27.0701 24.8576 26.3222 24.8318C25.5742 24.8059 24.8293 24.9421 24.1398 25.231C23.4503 25.5198 22.833 25.9542 22.3298 26.5042C21.8266 27.0541 21.4499 27.7062 21.2263 28.4152C20.403 28.4665 19.6008 28.6915 18.872 29.0752C18.1433 29.459 17.5046 29.9927 17.0001 30.6407C16.43 30.4144 15.8776 30.1474 15.3464 29.8416C10.8306 27.2266 9.22479 19.7691 11.865 14.0716C12.9518 11.7784 14.8802 9.98415 17.2556 9.05577C19.631 8.1274 22.274 8.13508 24.6439 9.07726C26.4846 9.77035 28.0888 10.969 29.269 12.5332C30.4492 14.0975 31.1566 15.9627 31.3089 17.9112C31.304 19.1071 31.2366 20.302 31.1075 21.4911C32.0812 21.0317 33.1472 20.7968 34.2253 20.8038C35.3034 20.8108 36.3657 21.0596 37.3333 21.5317C38.3009 22.0037 39.1481 22.6867 39.8124 23.5296C40.4767 24.3725 40.9408 25.3536 41.1694 26.3995C41.7706 24.3525 42.0548 22.2266 42.0125 20.0947C41.8394 8.09038 34.7019 0.223354 20.8647 0.0036041C8.23905 -0.196168 -0.0180817 7.92657 2.97345e-05 19.9808C0.0201536 32.097 8.51044 39.982 21.1703 40C21.273 40 21.3714 40 21.472 40C21.5022 40 21.5283 40 21.5585 40H40.0217C40.6957 39.9863 41.3608 39.8396 41.9771 39.5685C42.5934 39.2974 43.1492 38.9072 43.6121 38.4207C44.0751 37.9343 44.4357 37.3612 44.6734 36.7349C44.911 36.1087 45.0212 35.4418 44.9966 34.773C44.9721 34.1042 44.8129 33.447 44.5299 32.8396C44.247 32.2322 43.8452 31.6867 43.3478 31.235C42.8504 30.7833 42.2677 30.4344 41.6332 30.2085C40.9986 29.9827 40.3254 29.8844 39.6522 29.9195L39.6562 29.9255Z" fill="white"/>
</svg>
